<mxfile host="app.diagrams.net" agent="Mozilla/5.0 (Windows NT 10.0; Win64; x64) AppleWebKit/537.36 (KHTML, like Gecko) Chrome/129.0.0.0 Safari/537.36" version="24.7.17">
  <diagram name="Page-1" id="5f0bae14-7c28-e335-631c-24af17079c00">
    <mxGraphModel dx="1050" dy="522" grid="1" gridSize="10" guides="1" tooltips="1" connect="1" arrows="1" fold="1" page="1" pageScale="1" pageWidth="1100" pageHeight="850" background="none" math="0" shadow="0">
      <root>
        <mxCell id="0" />
        <mxCell id="1" parent="0" />
        <mxCell id="0nrRiqOA1WVDgEQKGtPR-20" style="edgeStyle=orthogonalEdgeStyle;rounded=0;orthogonalLoop=1;jettySize=auto;html=1;exitX=0;exitY=0;exitDx=135;exitDy=175;exitPerimeter=0;" edge="1" parent="1" source="0nrRiqOA1WVDgEQKGtPR-8" target="39150e848f15840c-3">
          <mxGeometry relative="1" as="geometry" />
        </mxCell>
        <mxCell id="0nrRiqOA1WVDgEQKGtPR-8" value="Input data" style="verticalAlign=top;align=left;spacingTop=8;spacingLeft=2;spacingRight=12;shape=cube;size=10;direction=south;fontStyle=4;html=1;rounded=0;shadow=0;comic=0;labelBackgroundColor=none;strokeWidth=1;fontFamily=Verdana;fontSize=12" vertex="1" parent="1">
          <mxGeometry x="300" y="90" width="340" height="135" as="geometry" />
        </mxCell>
        <mxCell id="0nrRiqOA1WVDgEQKGtPR-30" value="" style="edgeStyle=orthogonalEdgeStyle;rounded=0;orthogonalLoop=1;jettySize=auto;html=1;" edge="1" parent="1" source="39150e848f15840c-3" target="0nrRiqOA1WVDgEQKGtPR-14">
          <mxGeometry relative="1" as="geometry" />
        </mxCell>
        <mxCell id="39150e848f15840c-3" value="Blackend(Flask)" style="verticalAlign=top;align=left;spacingTop=8;spacingLeft=2;spacingRight=12;shape=cube;size=10;direction=south;fontStyle=4;html=1;rounded=0;shadow=0;comic=0;labelBackgroundColor=none;strokeWidth=1;fontFamily=Verdana;fontSize=12" parent="1" vertex="1">
          <mxGeometry x="300" y="290" width="340" height="135" as="geometry" />
        </mxCell>
        <mxCell id="0nrRiqOA1WVDgEQKGtPR-2" value="Upload File" style="rounded=0;whiteSpace=wrap;html=1;" vertex="1" parent="1">
          <mxGeometry x="490" y="137.5" width="120" height="60" as="geometry" />
        </mxCell>
        <mxCell id="0nrRiqOA1WVDgEQKGtPR-19" style="edgeStyle=orthogonalEdgeStyle;rounded=0;orthogonalLoop=1;jettySize=auto;html=1;exitX=1;exitY=0.5;exitDx=0;exitDy=0;entryX=0;entryY=0.5;entryDx=0;entryDy=0;" edge="1" parent="1" source="0nrRiqOA1WVDgEQKGtPR-3" target="0nrRiqOA1WVDgEQKGtPR-9">
          <mxGeometry relative="1" as="geometry" />
        </mxCell>
        <mxCell id="0nrRiqOA1WVDgEQKGtPR-3" value="Processing data" style="rounded=0;whiteSpace=wrap;html=1;" vertex="1" parent="1">
          <mxGeometry x="320" y="340" width="120" height="60" as="geometry" />
        </mxCell>
        <mxCell id="0nrRiqOA1WVDgEQKGtPR-4" value="From" style="rounded=0;whiteSpace=wrap;html=1;" vertex="1" parent="1">
          <mxGeometry x="320" y="137.5" width="120" height="60" as="geometry" />
        </mxCell>
        <mxCell id="0nrRiqOA1WVDgEQKGtPR-9" value="Model" style="rounded=0;whiteSpace=wrap;html=1;" vertex="1" parent="1">
          <mxGeometry x="480" y="340" width="120" height="60" as="geometry" />
        </mxCell>
        <mxCell id="0nrRiqOA1WVDgEQKGtPR-10" value="Show data" style="verticalAlign=top;align=left;spacingTop=8;spacingLeft=2;spacingRight=12;shape=cube;size=10;direction=south;fontStyle=4;html=1;rounded=0;shadow=0;comic=0;labelBackgroundColor=none;strokeWidth=1;fontFamily=Verdana;fontSize=12" vertex="1" parent="1">
          <mxGeometry x="670" y="90" width="340" height="135" as="geometry" />
        </mxCell>
        <mxCell id="0nrRiqOA1WVDgEQKGtPR-31" value="" style="edgeStyle=orthogonalEdgeStyle;rounded=0;orthogonalLoop=1;jettySize=auto;html=1;" edge="1" parent="1" source="0nrRiqOA1WVDgEQKGtPR-11" target="0nrRiqOA1WVDgEQKGtPR-10">
          <mxGeometry relative="1" as="geometry" />
        </mxCell>
        <mxCell id="0nrRiqOA1WVDgEQKGtPR-11" value="DataBase" style="verticalAlign=top;align=left;spacingTop=8;spacingLeft=2;spacingRight=12;shape=cube;size=10;direction=south;fontStyle=4;html=1;rounded=0;shadow=0;comic=0;labelBackgroundColor=none;strokeWidth=1;fontFamily=Verdana;fontSize=12" vertex="1" parent="1">
          <mxGeometry x="670" y="290" width="340" height="135" as="geometry" />
        </mxCell>
        <mxCell id="0nrRiqOA1WVDgEQKGtPR-14" value="Dataset" style="rounded=0;whiteSpace=wrap;html=1;" vertex="1" parent="1">
          <mxGeometry x="690" y="340" width="120" height="60" as="geometry" />
        </mxCell>
        <mxCell id="0nrRiqOA1WVDgEQKGtPR-15" value="Predicted&amp;nbsp;" style="rounded=0;whiteSpace=wrap;html=1;" vertex="1" parent="1">
          <mxGeometry x="840" y="340" width="120" height="60" as="geometry" />
        </mxCell>
        <mxCell id="0nrRiqOA1WVDgEQKGtPR-33" value="Recommandations" style="rounded=0;whiteSpace=wrap;html=1;" vertex="1" parent="1">
          <mxGeometry x="710" y="137.5" width="250" height="60" as="geometry" />
        </mxCell>
      </root>
    </mxGraphModel>
  </diagram>
</mxfile>
